<?xml version="1.0" encoding="utf-8"?>
<!DOCTYPE svg PUBLIC "-//W3C//DTD SVG 1.1 Basic//EN" "http://www.w3.org/Graphics/SVG/1.1/DTD/svg11-basic.dtd">
<svg version="1.1" baseProfile="basic" id="svg" xmlns="http://www.w3.org/2000/svg" xmlns:xlink="http://www.w3.org/1999/xlink"
 width="0.900in"
    height="1.350in"
    viewBox="0 0 950 1350" xml:space="preserve">
<g id="breadboard">
<rect id="connector0pin" x="100" y="200" fill="none"
width="50" height="50"/>
<rect id="connector1pin" x="100" y="300" fill="none"
width="50" height="50"/>
<rect id="connector2pin" x="100" y="400" fill="none"
width="50" height="50"/>
<rect id="connector3pin" x="100" y="500" fill="none"
width="50" height="50"/>
<rect id="connector4pin" x="100" y="600" fill="none"
width="50" height="50"/>
<rect id="connector5pin" x="100" y="700" fill="none"
width="50" height="50"/>
<rect id="connector6pin" x="100" y="900" fill="none"
width="50" height="50"/>
<rect id="connector7pin" x="100" y="1000" fill="none"
width="50" height="50"/>
<rect id="connector8pin" x="100" y="1100" fill="none"
width="50" height="50"/>
<rect id="connector9pin" x="100" y="1200" fill="none"
width="50" height="50"/>
<rect id="connector10pin" x="800" y="200" fill="none"
width="50" height="50"/>
<rect id="connector11pin" x="800" y="300" fill="none"
width="50" height="50"/>
<rect id="connector12pin" x="800" y="400" fill="none"
width="50" height="50"/>
<rect id="connector13pin" x="800" y="500" fill="none"
width="50" height="50"/>
<rect id="connector14pin" x="800" y="600" fill="none"
width="50" height="50"/>
<rect id="connector15pin" x="800" y="700" fill="none"
width="50" height="50"/>
<rect id="connector16pin" x="800" y="800" fill="none"
width="50" height="50"/>
<rect id="connector17pin" x="800" y="900" fill="none"
width="50" height="50"/>
<rect id="connector18pin" x="800" y="1000" fill="none"
width="50" height="50"/>
<rect id="connector19pin" x="800" y="1100" fill="none"
width="50" height="50"/>
<rect id="connector0terminal" x="100" y="200" fill="none"
width="50" height="50"/>
<rect id="connector1terminal" x="100" y="300" fill="none"
width="50" height="50"/>
<rect id="connector2terminal" x="100" y="400" fill="none"
width="50" height="50"/>
<rect id="connector3terminal" x="100" y="500" fill="none"
width="50" height="50"/>
<rect id="connector4terminal" x="100" y="600" fill="none"
width="50" height="50"/>
<rect id="connector5terminal" x="100" y="700" fill="none"
width="50" height="50"/>
<rect id="connector6terminal" x="100" y="900" fill="none"
width="50" height="50"/>
<rect id="connector7terminal" x="100" y="1000" fill="none"
width="50" height="50"/>
<rect id="connector8terminal" x="100" y="1100" fill="none"
width="50" height="50"/>
<rect id="connector9terminal" x="100" y="1200" fill="none"
width="50" height="50"/>
<rect id="connector10terminal" x="800" y="200" fill="none"
width="50" height="50"/>
<rect id="connector11terminal" x="800" y="300" fill="none"
width="50" height="50"/>
<rect id="connector12terminal" x="800" y="400" fill="none"
width="50" height="50"/>
<rect id="connector13terminal" x="800" y="500" fill="none"
width="50" height="50"/>
<rect id="connector14terminal" x="800" y="600" fill="none"
width="50" height="50"/>
<rect id="connector15terminal" x="800" y="700" fill="none"
width="50" height="50"/>
<rect id="connector16terminal" x="800" y="800" fill="none"
width="50" height="50"/>
<rect id="connector17terminal" x="800" y="900" fill="none"
width="50" height="50"/>
<rect id="connector18terminal" x="800" y="1000" fill="none"
width="50" height="50"/>
<rect id="connector19terminal" x="800" y="1100" fill="none"
width="50" height="50"/>
<g>
<rect x="0" y="0" fill="green" width="950" height="1350"/>
</g>
<g>
<rect x="300" y="500" fill="black" width="350" height="400"/>
<rect x="425" y="400" fill="grey" width="125" height="50"/>
<circle cx="475" cy="250" fill="grey"  r="100" stroke="grey" stroke-width="20"/>
<rect x="300" y="1000" fill="grey" stroke="white" stroke-width="10" width="125" height="50"/>
<rect x="450" y="1000" fill="grey" width="125" height="50"/>
<rect x="300" y="1200" fill="grey" stroke="white" stroke-width="10" width="125" height="50"/>
<rect x="450" y="1200" fill="grey" width="125" height="50"/>
</g>
<g
       style="font-size:70px;text-align:start;line-height:100%;writing-mode:lr;text-anchor:start;fill:#000000;stroke:none;font-family:DroidSans"
       id="label0"
       font-size="70">
	<text
         x="100"
         y="50"
         >Robotic Sequencing</text>
    <text
         x="300"
         y="125"
         >RSI2C V1 Rev 2</text>
</g>		 
</g>
</svg>